<mxfile host="app.diagrams.net" modified="2024-06-12T02:47:50.747Z" agent="Mozilla/5.0 (Macintosh; Intel Mac OS X 10_15_7) AppleWebKit/537.36 (KHTML, like Gecko) Chrome/125.0.0.0 Safari/537.36" etag="XXNS82YUqqxanuZQ6gy_" version="24.5.2" type="github">
  <diagram name="第 1 页" id="Rqw-lTmqPTe3vy6ZHP1r">
    <mxGraphModel dx="993" dy="519" grid="1" gridSize="10" guides="1" tooltips="1" connect="1" arrows="1" fold="1" page="1" pageScale="1" pageWidth="827" pageHeight="1169" math="0" shadow="0">
      <root>
        <mxCell id="0" />
        <mxCell id="1" parent="0" />
        <mxCell id="csqp9LRz45bWNV64LH_A-3" value="" style="ellipse;whiteSpace=wrap;html=1;aspect=fixed;fontSize=28;fontStyle=1;fontColor=#FF3333;shadow=0;" vertex="1" parent="1">
          <mxGeometry x="160" y="240" width="440" height="440" as="geometry" />
        </mxCell>
        <mxCell id="csqp9LRz45bWNV64LH_A-4" value="突破点" style="text;html=1;align=center;verticalAlign=middle;resizable=0;points=[];autosize=1;strokeColor=none;fillColor=none;labelBackgroundColor=default;fontSize=28;fontStyle=1;fontColor=#FF3333;" vertex="1" parent="1">
          <mxGeometry x="325" y="220" width="110" height="50" as="geometry" />
        </mxCell>
        <mxCell id="csqp9LRz45bWNV64LH_A-5" value="积极目标" style="text;html=1;align=center;verticalAlign=middle;resizable=0;points=[];autosize=1;strokeColor=none;fillColor=none;labelBackgroundColor=default;fontSize=28;fontStyle=1;fontColor=#FF3333;" vertex="1" parent="1">
          <mxGeometry x="520" y="360" width="140" height="50" as="geometry" />
        </mxCell>
        <mxCell id="csqp9LRz45bWNV64LH_A-6" value="习惯养成" style="text;html=1;align=center;verticalAlign=middle;resizable=0;points=[];autosize=1;strokeColor=none;fillColor=none;labelBackgroundColor=default;fontSize=28;fontStyle=1;fontColor=#FF3333;" vertex="1" parent="1">
          <mxGeometry x="490" y="570" width="140" height="50" as="geometry" />
        </mxCell>
        <mxCell id="csqp9LRz45bWNV64LH_A-7" value="优化迭代" style="text;html=1;align=center;verticalAlign=middle;resizable=0;points=[];autosize=1;strokeColor=none;fillColor=none;labelBackgroundColor=default;fontSize=28;fontStyle=1;fontColor=#FF3333;" vertex="1" parent="1">
          <mxGeometry x="140" y="570" width="140" height="50" as="geometry" />
        </mxCell>
        <mxCell id="csqp9LRz45bWNV64LH_A-8" value="经验迁移" style="text;html=1;align=center;verticalAlign=middle;resizable=0;points=[];autosize=1;strokeColor=none;fillColor=none;labelBackgroundColor=default;fontSize=28;fontStyle=1;fontColor=#FF3333;" vertex="1" parent="1">
          <mxGeometry x="100" y="350" width="140" height="50" as="geometry" />
        </mxCell>
      </root>
    </mxGraphModel>
  </diagram>
</mxfile>
